<svg xmlns="http://www.w3.org/2000/svg" width="430" height="430" fill="none" viewBox="0 0 430 430"><path fill="#ebe6ef" d="M214.5 383c92.508 0 167.5-74.992 167.5-167.5S307.008 48 214.5 48 47 122.992 47 215.5 121.992 383 214.5 383"/><path fill="#ebe6ef" d="M306.32 355.86a167.875 167.875 0 0 1-198.206-11.415 167.87 167.87 0 0 1-48.72-192.464 167.88 167.88 0 0 1 99.226-95.12 167.888 167.888 0 0 0 28.344 296.433 167.9 167.9 0 0 0 119.356 2.566" opacity=".5" style="mix-blend-mode:multiply"/><path fill="#2ca58d" d="M241.875 116.875A1.874 1.874 0 0 0 240 115h-49.375a1.874 1.874 0 0 0-1.875 1.875v71.875h-71.875a1.874 1.874 0 0 0-1.875 1.875V240c0 1.036.839 1.875 1.875 1.875h71.875v71.25c0 1.036.839 1.875 1.875 1.875H240a1.874 1.874 0 0 0 1.875-1.875v-71.25h71.25A1.874 1.874 0 0 0 315 240v-49.375a1.874 1.874 0 0 0-1.875-1.875h-71.25z"/><path fill="#2ca58d" d="M190.625 315H215V115h-24.375a1.874 1.874 0 0 0-1.875 1.875v71.875h-71.875a1.874 1.874 0 0 0-1.875 1.875V240c0 1.036.839 1.875 1.875 1.875h71.875v71.25c0 1.036.839 1.875 1.875 1.875" opacity=".5" style="mix-blend-mode:multiply"/></svg>